<?xml version="1.0" encoding="UTF-8" standalone="no"?>
<!-- Created with Inkscape (http://www.inkscape.org/) -->

<svg
   xmlns:dc="http://purl.org/dc/elements/1.1/"
   xmlns:cc="http://creativecommons.org/ns#"
   xmlns:rdf="http://www.w3.org/1999/02/22-rdf-syntax-ns#"
   xmlns:svg="http://www.w3.org/2000/svg"
   xmlns="http://www.w3.org/2000/svg"
   xmlns:xlink="http://www.w3.org/1999/xlink"
   xmlns:sodipodi="http://sodipodi.sourceforge.net/DTD/sodipodi-0.dtd"
   xmlns:inkscape="http://www.inkscape.org/namespaces/inkscape"
   id="svg2"
   sodipodi:docname="10kg_whiteletter_with_effect.svg"
   viewBox="0 0 333.48 221.39"
   sodipodi:version="0.32"
   version="1.0"
   inkscape:output_extension="org.inkscape.output.svg.inkscape"
   inkscape:version="0.92.3 (2405546, 2018-03-11)"
   inkscape:export-filename="C:\temp\画像.png"
   inkscape:export-xdpi="96"
   inkscape:export-ydpi="96">
  <sodipodi:namedview
     id="base"
     bordercolor="#666666"
     inkscape:pageshadow="2"
     guidetolerance="10"
     pagecolor="#ffffff"
     gridtolerance="10000"
     inkscape:snap-global="true"
     inkscape:zoom="2.4438966"
     objecttolerance="10"
     inkscape:window-height="783"
     showgrid="false"
     borderopacity="1.0"
     inkscape:current-layer="layer1"
     inkscape:cx="166.33273"
     inkscape:cy="110.69683"
     inkscape:window-y="131"
     inkscape:window-x="336"
     inkscape:window-width="1272"
     inkscape:pageopacity="0.0"
     inkscape:document-units="px"
     inkscape:window-maximized="1" />
  <defs
     id="defs4">
    <linearGradient
       id="linearGradient3366">
      <stop
         id="stop3368"
         style="stop-color:#777777"
         offset="0" />
      <stop
         id="stop3370"
         style="stop-color:#282828"
         offset="1" />
    </linearGradient>
    <linearGradient
       id="linearGradient3329">
      <stop
         id="stop3331"
         style="stop-color:#444444"
         offset="0" />
      <stop
         id="stop3333"
         style="stop-color:#000000"
         offset="1" />
    </linearGradient>
    <linearGradient
       id="linearGradient3297">
      <stop
         id="stop3299"
         style="stop-color:#000000;stop-opacity:0"
         offset="0" />
      <stop
         id="stop3301"
         style="stop-color:#000000"
         offset="1" />
    </linearGradient>
    <linearGradient
       id="linearGradient4173"
       y2="493.11"
       xlink:href="#linearGradient3366"
       gradientUnits="userSpaceOnUse"
       x2="399.06"
       y1="463.57"
       x1="391.13"
       inkscape:collect="always" />
    <linearGradient
       id="linearGradient4175"
       y2="631.35"
       xlink:href="#linearGradient3329"
       gradientUnits="userSpaceOnUse"
       x2="353.18"
       y1="493.05"
       x1="368.38"
       inkscape:collect="always" />
    <linearGradient
       id="linearGradient4177"
       y2="610.86"
       xlink:href="#linearGradient3329"
       gradientUnits="userSpaceOnUse"
       x2="516.95"
       y1="466.45"
       x1="436.89"
       inkscape:collect="always" />
    <linearGradient
       id="linearGradient4179"
       y2="512.14"
       xlink:href="#linearGradient3366"
       gradientUnits="userSpaceOnUse"
       x2="446.06"
       y1="492.56"
       x1="431.9"
       inkscape:collect="always" />
    <radialGradient
       id="radialGradient4181"
       gradientUnits="userSpaceOnUse"
       cy="444.92"
       cx="406.46"
       gradientTransform="matrix(1 0 0 .94069 0 26.388)"
       r="9.4844"
       inkscape:collect="always">
      <stop
         id="stop3271"
         style="stop-color:#ffffff"
         offset="0" />
      <stop
         id="stop3273"
         style="stop-color:#5f5f5f;stop-opacity:0"
         offset="1" />
    </radialGradient>
    <radialGradient
       id="radialGradient4183"
       gradientUnits="userSpaceOnUse"
       cy="444.92"
       cx="406.46"
       gradientTransform="matrix(1 0 0 .94069 0 26.388)"
       r="9.4844"
       inkscape:collect="always">
      <stop
         id="stop3289"
         style="stop-color:#000000;stop-opacity:0"
         offset="0" />
      <stop
         id="stop3295"
         style="stop-color:#000000;stop-opacity:.054902"
         offset=".5" />
      <stop
         id="stop3291"
         style="stop-color:#777777;stop-opacity:.60234"
         offset="1" />
    </radialGradient>
    <linearGradient
       id="linearGradient4185"
       y2="447.18"
       xlink:href="#linearGradient3297"
       gradientUnits="userSpaceOnUse"
       x2="412.45"
       gradientTransform="translate(.10219 5.1451)"
       y1="441.12"
       x1="408.5"
       inkscape:collect="always" />
    <radialGradient
       id="radialGradient4187"
       gradientUnits="userSpaceOnUse"
       cy="437.36"
       cx="387.77"
       gradientTransform="matrix(.10937 .12016 -.46182 .42035 560.06 207.9)"
       r="9.4844"
       inkscape:collect="always">
      <stop
         id="stop3313"
         style="stop-color:#ffffff;stop-opacity:.35673"
         offset="0" />
      <stop
         id="stop3315"
         style="stop-color:#ffffff;stop-opacity:0"
         offset="1" />
    </radialGradient>
    <linearGradient
       id="linearGradient4189"
       y2="493.87"
       xlink:href="#linearGradient3297"
       gradientUnits="userSpaceOnUse"
       x2="432.41"
       y1="482.04"
       x1="429.61"
       inkscape:collect="always" />
  </defs>
  <g
     id="layer1"
     inkscape:label="Layer 1"
     inkscape:groupmode="layer"
     transform="translate(-269.23 -430.7)">
    <path
       id="rect2423"
       sodipodi:nodetypes="ccccc"
       style="stroke-linejoin:round;stroke:#000000;stroke-linecap:round;fill:url(#linearGradient4173)"
       d="m346.67 482.01l85.69-12.48 87.86 12.57-92.64 15.49-80.91-15.58z" />
    <path
       id="rect2417"
       sodipodi:nodetypes="ccccc"
       style="stroke-linejoin:round;stroke:#000000;stroke-linecap:round;fill:url(#linearGradient4175)"
       d="m346.61 482.01l80.17 15.12 9.44 154.46-166.49-50.64 76.88-118.94z" />
    <path
       id="rect2419"
       sodipodi:nodetypes="ccccc"
       style="stroke-linejoin:round;stroke:url(#linearGradient4179);stroke-linecap:round;fill:url(#linearGradient4177)"
       d="m426.69 497.6l93.39-15.59 82.14 124.19-165.18 45.39-10.35-153.99z" />
    <g
       id="g3343"
       transform="matrix(3.9894 0 0 3.2405 -1194.9 -982.18)">
      <path
         id="path2446"
         style="fill:#000000"
         d="m406.45 436c-5.24 0-9.47 4.01-9.47 8.94 0 4.92 4.23 8.91 9.47 8.91 5.23 0 9.5-3.99 9.5-8.91 0-4.93-4.27-8.94-9.5-8.94zm0 3.53c3.16 0 5.75 2.43 5.75 5.41s-2.59 5.37-5.75 5.37c-3.17 0-5.72-2.39-5.72-5.37s2.55-5.41 5.72-5.41z" />
      <path
         id="path2497"
         style="fill:url(#radialGradient4181)"
         d="m406.45 436c-5.24 0-9.47 4.01-9.47 8.94 0 4.92 4.23 8.91 9.47 8.91 5.23 0 9.5-3.99 9.5-8.91 0-4.93-4.27-8.94-9.5-8.94zm0 3.53c3.16 0 5.75 2.43 5.75 5.41s-2.59 5.37-5.75 5.37c-3.17 0-5.72-2.39-5.72-5.37s2.55-5.41 5.72-5.41z" />
      <path
         id="path3277"
         style="fill:url(#radialGradient4183)"
         d="m406.45 436c-5.24 0-9.47 4.01-9.47 8.94 0 4.92 4.23 8.91 9.47 8.91 5.23 0 9.5-3.99 9.5-8.91 0-4.93-4.27-8.94-9.5-8.94zm0 3.53c3.16 0 5.75 2.43 5.75 5.41s-2.59 5.37-5.75 5.37c-3.17 0-5.72-2.39-5.72-5.37s2.55-5.41 5.72-5.41z" />
      <path
         id="path2495"
         style="fill:url(#linearGradient4185)"
         d="m406.45 436c-5.24 0-9.47 4.01-9.47 8.94 0 4.92 4.23 8.91 9.47 8.91 5.23 0 9.5-3.99 9.5-8.91 0-4.93-4.27-8.94-9.5-8.94zm0 3.53c3.16 0 5.75 2.43 5.75 5.41s-2.59 5.37-5.75 5.37c-3.17 0-5.72-2.39-5.72-5.37s2.55-5.41 5.72-5.41z" />
      <path
         id="path2493"
         style="fill:url(#radialGradient4187)"
         d="m406.45 436c-5.24 0-9.47 4.01-9.47 8.94 0 4.92 4.23 8.91 9.47 8.91 5.23 0 9.5-3.99 9.5-8.91 0-4.93-4.27-8.94-9.5-8.94zm0 3.53c3.16 0 5.75 2.43 5.75 5.41s-2.59 5.37-5.75 5.37c-3.17 0-5.72-2.39-5.72-5.37s2.55-5.41 5.72-5.41z" />
    </g>
    <path
       id="path3372"
       sodipodi:rx="14.89038"
       sodipodi:ry="5.9153566"
       style="fill:url(#linearGradient4189)"
       sodipodi:type="arc"
       d="m 445.89551,487.9556 a 14.89038,5.9153566 0 0 1 -14.89038,5.91535 14.89038,5.9153566 0 0 1 -14.89038,-5.91535 14.89038,5.9153566 0 0 1 14.89038,-5.91536 14.89038,5.9153566 0 0 1 14.89038,5.91536 z"
       transform="matrix(1.6027 0 0 1 -262.23 -1.6318)"
       sodipodi:cy="487.9556"
       sodipodi:cx="431.00513" />
    <path
       id="path3412"
       style="fill:#ffffff;fill-opacity:1"
       d="m462.12 589.26l-1.4-5.05 6.57-1.82-6.44-23.21-4.95 6.86-1.48-5.34 5.11-7.37 5.01-1.39 8.04 28.98 6.08-1.68 1.4 5.04-17.94 4.98m34.16-27.81c0.9 3.25 1.43 6.06 1.59 8.43 0.15 2.35 0.01 4.33-0.44 5.94-0.43 1.6-1.13 2.86-2.09 3.78-0.95 0.91-2.09 1.55-3.42 1.91-1.33 0.37-2.64 0.41-3.92 0.13-1.28-0.29-2.52-1-3.7-2.15-1.19-1.16-2.31-2.79-3.38-4.89-1.07-2.11-2.06-4.8-2.97-8.07-0.95-3.43-1.52-6.33-1.7-8.69-0.17-2.37-0.04-4.35 0.41-5.91 0.44-1.56 1.16-2.77 2.14-3.61 0.99-0.86 2.17-1.49 3.55-1.87 1.3-0.36 2.57-0.42 3.83-0.18 1.26 0.23 2.48 0.89 3.65 2.01 1.19 1.11 2.32 2.73 3.4 4.86 1.08 2.11 2.1 4.88 3.05 8.31m-5.31 1.47c-0.66-2.4-1.28-4.36-1.85-5.89-0.58-1.54-1.14-2.72-1.7-3.56-0.56-0.85-1.13-1.39-1.73-1.63-0.58-0.23-1.21-0.26-1.9-0.07-0.74 0.21-1.31 0.58-1.7 1.1-0.4 0.51-0.63 1.28-0.68 2.3-0.05 1.01 0.08 2.33 0.38 3.95 0.31 1.59 0.79 3.58 1.45 5.94 0.65 2.34 1.26 4.27 1.83 5.79s1.14 2.72 1.7 3.59c0.56 0.85 1.14 1.4 1.74 1.65 0.59 0.25 1.25 0.27 1.96 0.08 0.69-0.2 1.23-0.55 1.61-1.07 0.38-0.53 0.6-1.3 0.66-2.32 0.05-1.04-0.08-2.35-0.37-3.95-0.28-1.61-0.75-3.58-1.4-5.91m27.33 10.76l-8.72-10.33-1.72 2.66 2.72 9.81-5.28 1.46-9.95-35.84 5.29-1.47 5.7 20.53 4.26-12.83 5.68-1.58-4.32 12.18 12.12 13.8-5.78 1.61m19.88 5.77c-1.34 0.37-2.57 0.53-3.7 0.46-1.11-0.06-2.12-0.3-3.02-0.73-0.88-0.41-1.67-0.99-2.35-1.74-0.66-0.73-1.22-1.59-1.66-2.58l5.06-2.26c0.48 0.99 1.11 1.7 1.89 2.13 0.79 0.42 1.69 0.49 2.7 0.21 0.62-0.17 1.16-0.44 1.61-0.81 0.47-0.37 0.81-0.88 1.02-1.53 0.23-0.64 0.32-1.43 0.28-2.37s-0.23-2.07-0.6-3.37c-0.12-0.45-0.25-0.91-0.38-1.38s-0.24-0.89-0.33-1.28c-0.12-0.46-0.23-0.89-0.35-1.31l-0.03 0.01c-0.15 1.86-0.68 3.32-1.58 4.39-0.9 1.06-2.11 1.81-3.64 2.23-1.29 0.36-2.5 0.35-3.62-0.04-1.11-0.4-2.13-1.1-3.07-2.08-0.94-1.01-1.79-2.27-2.53-3.8-0.74-1.55-1.38-3.3-1.92-5.24-0.56-2.02-0.91-3.88-1.05-5.59-0.14-1.73-0.05-3.27 0.26-4.63 0.33-1.35 0.89-2.48 1.7-3.38 0.81-0.92 1.89-1.57 3.25-1.94 1.35-0.38 2.67-0.34 3.94 0.1 1.28 0.44 2.46 1.41 3.52 2.9l0.09-0.03c-0.09-0.33-0.19-0.72-0.3-1.16-0.1-0.46-0.19-0.89-0.28-1.3-0.09-0.43-0.17-0.8-0.23-1.13-0.05-0.34-0.08-0.56-0.09-0.68l5.01-1.39c0.13 0.59 0.33 1.41 0.6 2.46 0.26 1.05 0.58 2.26 0.96 3.61l5.35 19.3c0.53 1.9 0.77 3.61 0.74 5.13-0.04 1.53-0.34 2.88-0.91 4.05-0.56 1.16-1.37 2.14-2.45 2.94-1.06 0.8-2.35 1.41-3.89 1.83m-2.2-25.14c-0.46-1.64-0.97-2.97-1.52-4-0.55-1.02-1.12-1.81-1.71-2.36-0.58-0.55-1.18-0.89-1.78-1.02-0.59-0.13-1.15-0.12-1.68 0.03-0.67 0.19-1.23 0.52-1.66 1.01-0.42 0.48-0.72 1.12-0.88 1.93-0.17 0.81-0.2 1.79-0.08 2.94 0.11 1.14 0.38 2.47 0.8 3.99 0.78 2.82 1.72 4.84 2.82 6.08s2.35 1.67 3.74 1.28c0.53-0.15 1.01-0.42 1.46-0.82 0.45-0.42 0.79-1.02 1.02-1.79 0.23-0.79 0.31-1.78 0.25-2.96-0.05-1.18-0.32-2.62-0.78-4.31" />
    <path
       id="path4165"
       style="fill:#ffffff;fill-opacity:1"
       d="m323.6 561.83l1.53-5.01 6.52 1.98 6.99-23.05-7.85 3.14 1.61-5.3 8.26-3.49 4.97 1.51-8.73 28.78 6.04 1.83-1.52 5.02-17.82-5.41m43.75-5.19c-0.98 3.23-2.04 5.88-3.18 7.97-1.13 2.06-2.31 3.66-3.55 4.79-1.22 1.11-2.49 1.8-3.79 2.07-1.29 0.25-2.6 0.18-3.92-0.22s-2.44-1.07-3.37-1.99c-0.93-0.93-1.59-2.2-1.97-3.8-0.38-1.62-0.46-3.6-0.24-5.94 0.22-2.36 0.83-5.16 1.81-8.41 1.04-3.4 2.11-6.15 3.22-8.24 1.13-2.1 2.3-3.69 3.51-4.78 1.21-1.08 2.46-1.71 3.74-1.9 1.3-0.2 2.64-0.09 4.01 0.33 1.28 0.38 2.39 1.02 3.32 1.89 0.95 0.87 1.62 2.08 2.01 3.65 0.41 1.58 0.5 3.55 0.27 5.93-0.21 2.36-0.84 5.24-1.87 8.65m-5.27-1.6c0.72-2.38 1.25-4.37 1.58-5.96 0.34-1.61 0.5-2.92 0.48-3.92-0.02-1.02-0.22-1.79-0.59-2.3-0.36-0.51-0.89-0.87-1.57-1.08-0.74-0.22-1.41-0.22-2.03 0.01-0.61 0.22-1.21 0.75-1.8 1.58-0.58 0.84-1.18 2.02-1.79 3.54-0.6 1.52-1.25 3.45-1.96 5.8-0.71 2.32-1.23 4.27-1.56 5.86-0.33 1.6-0.49 2.91-0.48 3.94 0.02 1.02 0.21 1.8 0.58 2.33s0.91 0.9 1.62 1.12c0.68 0.21 1.33 0.19 1.93-0.04 0.6-0.24 1.2-0.77 1.79-1.61 0.6-0.85 1.2-2.03 1.81-3.53 0.62-1.51 1.28-3.42 1.99-5.74m17.31 23.72l-1.83-13.39-2.88 1.33-2.95 9.73-5.25-1.59 10.8-35.59 5.25 1.59-6.19 20.39 10.48-8.56 5.64 1.72-10.17 7.96 2.84 18.15-5.74-1.74m13.7 15.53c-1.33-0.41-2.46-0.94-3.37-1.6-0.91-0.65-1.63-1.39-2.16-2.23-0.53-0.82-0.88-1.73-1.05-2.73-0.17-0.98-0.18-2-0.03-3.07l5.49 0.8c-0.13 1.1 0.03 2.03 0.46 2.81 0.44 0.78 1.16 1.32 2.16 1.62 0.62 0.19 1.22 0.25 1.8 0.18 0.59-0.06 1.15-0.31 1.68-0.74 0.53-0.42 1.03-1.03 1.5-1.85 0.48-0.82 0.91-1.87 1.3-3.17 0.14-0.45 0.28-0.9 0.42-1.37 0.14-0.46 0.27-0.88 0.4-1.26 0.15-0.45 0.29-0.88 0.42-1.29l-0.04-0.01c-1.12 1.49-2.35 2.44-3.69 2.86-1.32 0.42-2.74 0.4-4.26-0.06-1.29-0.39-2.3-1.05-3.04-1.97-0.72-0.94-1.22-2.07-1.48-3.41-0.25-1.35-0.29-2.87-0.1-4.56 0.2-1.71 0.6-3.52 1.18-5.46 0.61-2 1.32-3.76 2.12-5.28 0.8-1.53 1.7-2.79 2.69-3.76 1-0.98 2.08-1.63 3.25-1.95 1.17-0.34 2.44-0.31 3.78 0.1 1.35 0.41 2.44 1.14 3.27 2.2 0.85 1.06 1.33 2.5 1.42 4.33l0.1 0.03c0.1-0.34 0.22-0.72 0.37-1.15 0.16-0.44 0.31-0.85 0.46-1.25s0.28-0.76 0.41-1.08c0.13-0.31 0.23-0.51 0.29-0.62l4.97 1.51c-0.2 0.57-0.47 1.37-0.81 2.4s-0.72 2.22-1.12 3.56l-5.82 19.17c-0.57 1.89-1.28 3.46-2.13 4.72-0.85 1.28-1.83 2.26-2.93 2.94-1.09 0.68-2.31 1.07-3.64 1.17-1.33 0.11-2.75-0.07-4.27-0.53m11.6-22.42c0.49-1.63 0.78-3.02 0.86-4.19 0.08-1.16 0.02-2.13-0.18-2.91-0.2-0.77-0.52-1.38-0.96-1.81-0.42-0.42-0.9-0.72-1.42-0.88-0.68-0.2-1.33-0.21-1.95-0.04-0.61 0.18-1.21 0.57-1.78 1.16-0.58 0.6-1.12 1.41-1.64 2.44s-1 2.3-1.46 3.8c-0.85 2.8-1.14 5.02-0.87 6.65 0.26 1.64 1.09 2.66 2.47 3.08 0.52 0.16 1.08 0.19 1.67 0.09 0.6-0.11 1.21-0.43 1.82-0.96 0.62-0.55 1.21-1.34 1.8-2.37 0.58-1.02 1.13-2.38 1.64-4.06" />
    <g
       id="g5149"
       transform="translate(0,4)"
       inkscape:export-filename="C:\temp\g5149.png"
       inkscape:export-xdpi="96"
       inkscape:export-ydpi="96">
      <path
         sodipodi:nodetypes="cscc"
         inkscape:connector-curvature="0"
         id="path5097"
         d="m 290.09831,489.23532 c 1.6786,-13.11042 7.16721,-23.93483 19.40116,-30.71204 6.15733,-3.41096 14.02332,-5.79673 23.9722,-6.93276 v 0"
         style="fill:none;stroke:#464646;stroke-width:4.30000019;stroke-linecap:round;stroke-linejoin:miter;stroke-miterlimit:4;stroke-dasharray:none;stroke-opacity:1" />
      <path
         sodipodi:nodetypes="cscc"
         inkscape:connector-curvature="0"
         id="path5097-2"
         d="m 298.67797,499.45153 c 1.6786,-13.11042 7.16721,-23.93483 19.40116,-30.71205 6.15733,-3.41096 14.02332,-5.79673 23.9722,-6.93276 v 0"
         style="fill:none;stroke:#787878;stroke-width:4.30000019;stroke-linecap:round;stroke-linejoin:miter;stroke-miterlimit:4;stroke-dasharray:none;stroke-opacity:1" />
      <path
         sodipodi:nodetypes="cscc"
         inkscape:connector-curvature="0"
         id="path5097-8"
         d="m 281.85557,478.9924 c 1.6786,-13.11042 7.16721,-23.93483 19.40116,-30.71205 6.15733,-3.41096 14.02332,-5.79673 23.9722,-6.93276 v 0"
         style="fill:none;stroke:#000000;stroke-width:4.30000019;stroke-linecap:round;stroke-linejoin:miter;stroke-miterlimit:4;stroke-dasharray:none;stroke-opacity:1" />
    </g>
    <g
       id="g5144"
       transform="translate(0,4)"
       inkscape:export-filename="C:\temp\g5149.png"
       inkscape:export-xdpi="96"
       inkscape:export-ydpi="96">
      <path
         sodipodi:nodetypes="cscc"
         inkscape:connector-curvature="0"
         id="path5097-7"
         d="m 579.98124,489.23532 c -1.6786,-13.11042 -7.16721,-23.93483 -19.40116,-30.71204 -6.15733,-3.41096 -14.02332,-5.79673 -23.9722,-6.93276 v 0"
         style="fill:none;stroke:#464646;stroke-width:4.30000019;stroke-linecap:round;stroke-linejoin:miter;stroke-miterlimit:4;stroke-dasharray:none;stroke-opacity:1" />
      <path
         sodipodi:nodetypes="cscc"
         inkscape:connector-curvature="0"
         id="path5097-2-1"
         d="m 571.40158,499.45153 c -1.6786,-13.11042 -7.16721,-23.93483 -19.40116,-30.71205 -6.15733,-3.41096 -14.02332,-5.79673 -23.9722,-6.93276 v 0"
         style="fill:none;stroke:#787878;stroke-width:4.30000019;stroke-linecap:round;stroke-linejoin:miter;stroke-miterlimit:4;stroke-dasharray:none;stroke-opacity:1" />
      <path
         sodipodi:nodetypes="cscc"
         inkscape:connector-curvature="0"
         id="path5097-8-4"
         d="m 588.22398,478.9924 c -1.6786,-13.11042 -7.16721,-23.93483 -19.40116,-30.71206 -6.15733,-3.41096 -14.02332,-5.79673 -23.9722,-6.93276 v 0"
         style="fill:none;stroke:#000000;stroke-width:4.30000019;stroke-linecap:round;stroke-linejoin:miter;stroke-miterlimit:4;stroke-dasharray:none;stroke-opacity:1" />
    </g>
  </g>
  <metadata
     id="metadata3753">
    <rdf:RDF>
      <cc:Work>
        <dc:format>image/svg+xml</dc:format>
        <dc:type
           rdf:resource="http://purl.org/dc/dcmitype/StillImage" />
        <cc:license
           rdf:resource="http://creativecommons.org/licenses/publicdomain/" />
        <dc:publisher>
          <cc:Agent
             rdf:about="http://openclipart.org/">
            <dc:title>Openclipart</dc:title>
          </cc:Agent>
        </dc:publisher>
        <dc:title></dc:title>
        <dc:date>2010-02-12T22:02:28</dc:date>
        <dc:description />
        <dc:source>https://openclipart.org/detail/29271/10-kg-weight-by-klaasvangend</dc:source>
        <dc:creator>
          <cc:Agent>
            <dc:title>klaasvangend</dc:title>
          </cc:Agent>
        </dc:creator>
        <dc:subject>
          <rdf:Bag>
            <rdf:li>kilogram</rdf:li>
            <rdf:li>mass</rdf:li>
            <rdf:li>unchecked</rdf:li>
            <rdf:li>weight</rdf:li>
          </rdf:Bag>
        </dc:subject>
      </cc:Work>
      <cc:License
         rdf:about="http://creativecommons.org/licenses/publicdomain/">
        <cc:permits
           rdf:resource="http://creativecommons.org/ns#Reproduction" />
        <cc:permits
           rdf:resource="http://creativecommons.org/ns#Distribution" />
        <cc:permits
           rdf:resource="http://creativecommons.org/ns#DerivativeWorks" />
      </cc:License>
    </rdf:RDF>
  </metadata>
</svg>
